HIERARCHY
ROOT root     
{
	OFFSET 0.0000 0.0000 0.0000
	CHANNELS 6 Xposition Yposition Zposition Zrotation Yrotation Xrotation
	JOINT pelvis   
	{
		OFFSET 0.0000 0.0000 0.0000
		CHANNELS 3 Zrotation Yrotation Xrotation
		JOINT thorax   
		{
			OFFSET 0.0000 23.0750 -5.0000
			CHANNELS 3 Zrotation Yrotation Xrotation
			JOINT rclavicle
			{
				OFFSET 0.0000 28.0009 0.0000
				CHANNELS 3 Zrotation Yrotation Xrotation
				JOINT rhumerus 
				{
					OFFSET -18.5725 5.5939 0.0000
					CHANNELS 3 Zrotation Yrotation Xrotation
					JOINT rradius  
					{
						OFFSET -24.8459 0.0000 0.0000
						CHANNELS 3 Zrotation Yrotation Xrotation
						JOINT rhand    
						{
							OFFSET -24.5477 0.0000 0.0000
							CHANNELS 3 Zrotation Yrotation Xrotation
							End Site
							{
								OFFSET -8.1826 0.0000 0.0000
							}
						}
					}
				}
			}
			JOINT lclavicle
			{
				OFFSET 0.0000 28.0009 0.0000
				CHANNELS 3 Zrotation Yrotation Xrotation
				JOINT lhumerus 
				{
					OFFSET 18.5725 5.5939 0.0000
					CHANNELS 3 Zrotation Yrotation Xrotation
					JOINT lradius  
					{
						OFFSET 24.8459 0.0000 0.0000
						CHANNELS 3 Zrotation Yrotation Xrotation
						JOINT lhand    
						{
							OFFSET 24.5477 0.0000 0.0000
							CHANNELS 3 Zrotation Yrotation Xrotation
							End Site
							{
								OFFSET 8.1826 0.0000 0.0000
							}
						}
					}
				}
			}
			JOINT head     
			{
				OFFSET 0.0000 35.2030 0.0000
				CHANNELS 3 Zrotation Yrotation Xrotation
				End Site
				{
					OFFSET 0.0000 11.7343 0.0000
				}
			}
		}
		JOINT rfemur   
		{
			OFFSET -8.2817 0.0000 0.0000
			CHANNELS 3 Zrotation Yrotation Xrotation
			JOINT rtibia   
			{
				OFFSET 0.0000 -43.3627 0.0000
				CHANNELS 3 Zrotation Yrotation Xrotation
				JOINT rfoot    
				{
					OFFSET 0.0000 -38.2947 0.0000
					CHANNELS 3 Zrotation Yrotation Xrotation
					JOINT rtoes    
					{
						OFFSET 0.0000 0.0000 16.6054
						CHANNELS 3 Zrotation Yrotation Xrotation
						End Site
						{
							OFFSET 0.0000 0.0000 5.5351
						}
					}
				}
			}
		}
		JOINT lfemur   
		{
			OFFSET 8.2817 0.0000 0.0000
			CHANNELS 3 Zrotation Yrotation Xrotation
			JOINT ltibia   
			{
				OFFSET 0.0000 -43.3627 0.0000
				CHANNELS 3 Zrotation Yrotation Xrotation
				JOINT lfoot    
				{
					OFFSET 0.0000 -38.2947 0.0000
					CHANNELS 3 Zrotation Yrotation Xrotation
					JOINT ltoes    
					{
						OFFSET 0.0000 0.0000 16.6054
						CHANNELS 3 Zrotation Yrotation Xrotation
						End Site
						{
							OFFSET 0.0000 0.0000 5.5351
						}
					}
				}
			}
		}
	}
}
MOTION
Frames: 10
Frame Time: 0.008333
172.9630 84.1304 36.4048 176.6694 12.9878 -168.9872 0.0000 -0.0000 0.0000 -11.4538 -2.1819 -10.9298 33.1243 -3.1158 -0.0000 54.3004 10.4313 4.4269 -0.0000 26.9929 -0.0000 3.1382 6.1422 0.1684 -28.5298 11.5017 0.0000 -46.2181 5.3554 4.4943 0.0000 -15.4147 -0.0000 3.2552 0.9829 0.0279 3.5217 4.1930 7.6191 -6.5921 -5.0776 0.1056 -0.0000 -0.0000 35.1860 -0.0000 4.5036 9.8949 0.7754 0.0000 -77.0181 -11.3354 8.3990 -31.4979 -0.0000 -0.0000 16.5162 0.0000 1.6801 9.5299 0.2782 -0.0000 -7.2989
172.8980 84.2665 35.5624 176.4219 12.9126 -169.0547 0.0000 -0.0000 0.0000 -11.7274 -2.3338 -10.9175 33.1637 -3.2419 0.0000 54.6817 9.7750 3.8522 -0.0000 26.2523 -0.0000 3.2144 5.9151 0.1661 -28.4587 11.3664 0.0000 -46.3804 5.0054 5.1399 0.0000 -16.0251 -0.0000 3.0813 1.0554 0.0284 3.5121 4.3681 7.4756 -7.0986 -5.4575 -1.1490 -0.0000 -0.0000 38.0804 -0.0000 4.7211 12.0201 0.9853 0.0000 -77.2492 -11.6505 8.3640 -30.6768 -0.0000 -0.0000 16.1347 -0.0000 1.5263 9.1247 0.2421 -0.0000 -6.9113
172.8360 84.3901 34.7459 176.2028 12.8720 -169.1009 0.0000 -0.0000 0.0000 -11.9497 -2.4775 -10.8967 33.1894 -3.3330 -0.0000 55.0269 9.1248 3.2474 -0.0000 25.5275 -0.0000 3.3065 5.6814 0.1641 -28.4015 11.2486 0.0000 -46.4990 4.6260 5.8582 0.0000 -16.7067 -0.0000 2.9315 1.1026 0.0282 3.4797 4.5794 7.2793 -7.5554 -5.7922 -2.5024 -0.0000 -0.0000 41.0058 0.0000 4.7475 14.0887 1.1582 0.0000 -76.6247 -11.9815 8.4586 -29.9016 -0.0000 -0.0000 15.7421 0.0000 1.2780 8.7265 0.1939 0.0000 -6.5971
172.7680 84.5024 33.9470 175.9758 12.8684 -169.1491 0.0000 -0.0000 0.0000 -12.1728 -2.6173 -10.8533 33.2188 -3.4142 -0.0000 55.3285 8.5184 2.6697 -0.0000 24.7945 -0.0000 3.3993 5.4543 0.1620 -28.3440 11.1347 0.0000 -46.5748 4.2376 6.6131 0.0000 -17.4653 -0.0000 2.8143 1.1159 0.0274 3.4404 4.8269 7.0398 -8.0093 -6.0966 -3.9210 -0.0000 -0.0000 43.9297 -0.0000 4.5564 16.0042 1.2587 0.0000 -75.2419 -12.3456 8.6353 -29.1299 -0.0000 -0.0000 15.2959 -0.0000 0.9789 8.3662 0.1424 -0.0000 -6.3889
172.6950 84.6043 33.1623 175.7344 12.8975 -169.2070 0.0000 -0.0000 0.0000 -12.4020 -2.7588 -10.7842 33.2533 -3.4803 0.0000 55.5889 7.9492 2.1088 -0.0000 24.0539 -0.0000 3.4946 5.2390 0.1599 -28.2839 11.0290 0.0000 -46.6062 3.8359 7.3945 0.0000 -18.2886 -0.0000 2.7402 1.0871 0.0260 3.3978 5.1120 6.7713 -8.4589 -6.3651 -5.3791 -0.0000 -0.0000 46.8124 -0.0000 4.1042 17.6797 1.2484 0.0000 -73.2834 -12.7368 8.8758 -28.3523 -0.0000 -0.0000 14.7961 0.0000 0.6390 8.0467 0.0895 0.0000 -6.2883
172.6250 84.6966 32.3941 175.5106 12.9468 -169.2615 0.0000 -0.0000 0.0000 -12.5979 -2.9094 -10.7003 33.2846 -3.5259 0.0000 55.8102 7.4077 1.5535 -0.0000 23.3058 -0.0000 3.5898 5.0420 0.1581 -28.2313 10.9373 -0.0000 -46.5906 3.4160 8.1932 0.0000 -19.1619 -0.0000 2.7177 1.0108 0.0240 3.3450 5.4355 6.4908 -8.8572 -6.5796 -6.8665 -0.0000 -0.0000 49.6144 0.0000 3.3456 19.0455 1.0928 -0.0000 -70.9609 -13.1331 9.2094 -27.6041 -0.0000 -0.0000 14.3012 -0.0000 0.2177 7.7371 0.0293 -0.0000 -6.2556
172.5560 84.7815 31.6361 175.2886 13.0080 -169.3277 0.0000 -0.0000 0.0000 -12.7778 -3.0744 -10.5913 33.3161 -3.5538 0.0000 55.9955 6.8928 0.9975 -0.0000 22.5506 -0.0000 3.6794 4.8668 0.1564 -28.1795 10.8554 0.0000 -46.5318 2.9796 8.9894 0.0000 -20.0731 -0.0000 2.7525 0.8859 0.0213 3.2885 5.7933 6.2121 -9.2208 -6.7512 -8.3537 -0.0000 -0.0000 52.3061 0.0000 2.2918 20.0456 0.7859 -0.0000 -68.4718 -13.5243 9.5787 -26.8492 -0.0000 -0.0000 13.7840 -0.0000 -0.2340 7.4467 -0.0303 0.0000 -6.2836
172.4880 84.8608 30.8865 175.0759 13.0691 -169.4069 0.0000 -0.0000 0.0000 -12.9330 -3.2591 -10.4565 33.3455 -3.5678 0.0000 56.1470 6.4028 0.4375 -0.0000 21.7889 -0.0000 3.7556 4.7167 0.1547 -28.1293 10.7800 0.0000 -46.4335 2.5285 9.7664 0.0000 -21.0104 -0.0000 2.8470 0.7152 0.0178 3.2285 6.1799 5.9492 -9.5402 -6.8826 -9.8235 -0.0000 -0.0000 54.8602 0.0000 0.9678 20.6467 0.3413 -0.0000 -65.9550 -13.8910 9.9503 -26.0780 -0.0000 -0.0000 13.2478 -0.0000 -0.6900 7.1679 -0.0861 0.0000 -6.3457
172.4260 84.9358 30.1454 174.8871 13.1165 -169.4929 0.0000 -0.0000 0.0000 -13.0431 -3.4681 -10.3008 33.3688 -3.5769 -0.0000 56.2653 5.9400 -0.1208 -0.0000 21.0215 -0.0000 3.8080 4.5946 0.1528 -28.0836 10.7092 -0.0000 -46.2997 2.0629 10.5115 0.0000 -21.9623 -0.0000 2.9993 0.5052 0.0132 3.1628 6.5888 5.7135 -9.7951 -6.9743 -11.2681 -0.0000 -0.0000 57.2534 0.0000 -0.5797 20.8387 -0.2062 -0.0000 -63.4745 -14.2134 10.3106 -25.2988 -0.0000 -0.0000 12.7149 -0.0000 -1.1429 6.8845 -0.1370 -0.0000 -6.4047
172.3700 85.0079 29.4111 174.7237 13.1397 -169.5879 0.0000 -0.0000 0.0000 -13.1077 -3.7033 -10.1227 33.3846 -3.5811 0.0000 56.3535 5.4938 -0.6915 -0.0000 20.2597 -0.0000 3.8323 4.4992 0.1506 -28.0395 10.6379 0.0000 -46.1370 1.5846 11.2129 0.0000 -22.9185 -0.0000 3.2044 0.2649 0.0074 3.0932 7.0108 5.5136 -9.9883 -7.0346 -12.6748 -0.0000 -0.0000 59.4668 0.0000 -2.2726 20.6314 -0.8011 -0.0000 -61.0320 -14.4762 10.6107 -24.4929 -0.0000 -0.0000 12.1701 -0.0000 -1.5467 6.6009 -0.1778 -0.0000 -6.4470
